<?xml version="1.0" standalone="no"?>
<!DOCTYPE svg PUBLIC "-//W3C//DTD SVG 20010904//EN"
 "http://www.w3.org/TR/2001/REC-SVG-20010904/DTD/svg10.dtd">
<svg version="1.0" xmlns="http://www.w3.org/2000/svg"
 width="512.000000pt" height="512.000000pt" viewBox="0 0 512.000000 512.000000"
 preserveAspectRatio="xMidYMid meet">
<metadata>
Created by potrace 1.14, written by Peter Selinger 2001-2017
</metadata>
<g transform="translate(0.000000,512.000000) scale(0.100000,-0.100000)"
fill="#000000" stroke="none">
<path d="M740 5113 c-258 -43 -401 -110 -526 -246 -110 -120 -164 -241 -199
-441 -13 -77 -15 -315 -15 -1866 0 -1551 2 -1789 15 -1866 35 -200 89 -321
199 -441 105 -115 244 -190 426 -229 81 -18 169 -19 1920 -19 1751 0 1839 1
1920 19 182 39 321 114 426 229 110 120 164 241 199 441 13 77 15 315 15 1866
0 1551 -2 1789 -15 1866 -35 200 -89 321 -199 441 -102 112 -226 181 -406 226
l-85 21 -1825 2 c-1004 1 -1836 0 -1850 -3z m2800 -478 c268 -70 472 -293 531
-580 29 -138 22 -348 -14 -480 -50 -177 -138 -347 -265 -510 -114 -147 -216
-236 -346 -303 -66 -34 -77 -37 -161 -37 -80 0 -96 3 -148 30 -81 40 -171 138
-192 207 -18 61 -18 62 -5 110 9 31 29 51 118 120 278 214 476 457 547 672 56
168 29 330 -66 393 -38 25 -52 28 -144 31 -172 7 -321 -44 -518 -174 -115 -77
-316 -267 -439 -416 -369 -444 -676 -1129 -754 -1683 -24 -168 -25 -516 -1
-640 54 -286 145 -444 294 -512 150 -69 419 -25 656 107 85 46 255 164 408
283 81 63 117 63 165 0 57 -75 68 -227 24 -330 -50 -115 -301 -278 -562 -364
-237 -78 -466 -104 -703 -79 -350 36 -584 165 -750 415 -73 109 -110 193 -144
328 -45 174 -57 320 -43 544 48 761 309 1433 791 2033 199 247 511 512 782
663 154 86 369 161 534 187 91 14 329 5 405 -15z"/>
</g>
</svg>
