<?xml version="1.0" standalone="no"?>
<!DOCTYPE svg PUBLIC "-//W3C//DTD SVG 20010904//EN"
 "http://www.w3.org/TR/2001/REC-SVG-20010904/DTD/svg10.dtd">
<svg version="1.0" xmlns="http://www.w3.org/2000/svg"
 width="512.000000pt" height="512.000000pt" viewBox="0 0 512.000000 512.000000"
 preserveAspectRatio="xMidYMid meet">
<metadata>
Created by potrace 1.14, written by Peter Selinger 2001-2017
</metadata>
<g transform="translate(0.000000,512.000000) scale(0.100000,-0.100000)"
fill="#000000" stroke="none">
<path d="M765 5113 c-16 -2 -73 -12 -126 -23 -203 -42 -338 -120 -450 -258
-94 -116 -146 -247 -178 -447 -12 -76 -14 -3582 -1 -3645 4 -25 10 -58 13 -75
11 -69 51 -193 83 -253 35 -66 115 -172 153 -205 54 -45 145 -100 207 -125 87
-36 127 -46 279 -72 65 -11 3553 -11 3625 0 104 16 133 22 157 31 13 5 23 6
23 4 0 -5 83 26 140 52 182 83 320 250 381 462 48 164 48 144 48 2006 0 1034
-4 1776 -10 1814 -38 258 -116 417 -271 548 -83 71 -227 140 -330 159 -18 3
-67 12 -108 19 -62 11 -390 14 -1840 13 -971 -1 -1778 -3 -1795 -5z"/>
</g>
</svg>
