<?xml version="1.0" standalone="no"?>
<!DOCTYPE svg PUBLIC "-//W3C//DTD SVG 20010904//EN"
 "http://www.w3.org/TR/2001/REC-SVG-20010904/DTD/svg10.dtd">
<svg version="1.0" xmlns="http://www.w3.org/2000/svg"
 width="512.000000pt" height="512.000000pt" viewBox="0 0 512.000000 512.000000"
 preserveAspectRatio="xMidYMid meet">
<metadata>
Created by potrace 1.14, written by Peter Selinger 2001-2017
</metadata>
<g transform="translate(0.000000,512.000000) scale(0.100000,-0.100000)"
fill="#000000" stroke="none">
<path d="M1499 4461 c-1 -45 -1 -3791 0 -3809 1 -13 49 -12 181 3 19 3 60 7
90 9 30 3 78 8 105 10 47 5 140 12 299 21 37 2 71 7 75 10 8 9 9 89 11 908 1
390 3 707 4 705 2 -2 15 -37 29 -78 14 -41 44 -127 67 -190 23 -63 50 -140 60
-170 11 -30 27 -75 36 -100 9 -25 31 -88 49 -140 19 -52 55 -153 80 -225 26
-71 48 -134 49 -140 1 -5 4 -14 7 -20 4 -5 12 -28 18 -50 7 -22 16 -49 21 -60
5 -11 41 -112 80 -225 40 -113 75 -208 79 -212 3 -4 51 -10 106 -13 55 -3 134
-8 175 -11 41 -4 96 -8 121 -9 44 -3 70 -6 194 -21 28 -3 73 -7 100 -9 28 -2
55 -4 60 -5 6 -1 15 -2 20 -1 7 1 9 643 8 1909 -1 1049 -2 1916 -2 1927 -1 20
-7 20 -376 20 -206 0 -376 -2 -376 -5 -1 -3 -3 -380 -4 -838 -1 -458 -5 -835
-9 -839 -3 -3 -6 3 -6 15 0 11 -4 23 -9 26 -5 3 -12 18 -16 33 -3 16 -45 136
-91 268 -114 320 -138 389 -175 493 -30 84 -52 145 -103 290 -14 37 -41 114
-61 172 -20 58 -59 168 -86 246 l-50 141 -379 0 -380 1 -1 -37z"/>
</g>
</svg>
